<?xml version="1.0" encoding="UTF-8" standalone="no"?>
<!DOCTYPE svg PUBLIC "-//W3C//DTD SVG 1.1//EN"
        "http://www.w3.org/Graphics/SVG/1.1/DTD/svg11.dtd">
<!-- Generated by graphviz version 2.40.1 (20161225.0304)
 -->
<!-- Title: Tree Pages: 1 -->
<svg width="786pt" height="723pt"
     viewBox="0.00 0.00 785.88 723.20" xmlns="http://www.w3.org/2000/svg">
    <g id="graph0" class="graph" transform="scale(1 1) rotate(0) translate(4 719.2)">
        <title>Tree</title>
        <polygon fill="#ffffff" stroke="transparent" points="-4,4 -4,-719.2 781.8842,-719.2 781.8842,4 -4,4"/>
        <!-- 0 -->
        <g id="node1" class="node">
            <title>0</title>
            <path fill="transparent" stroke="#000000"
                  d="M469.8922,-715.2C469.8922,-715.2 357.992,-715.2 357.992,-715.2 351.992,-715.2 345.992,-709.2 345.992,-703.2 345.992,-703.2 345.992,-635.2 345.992,-635.2 345.992,-629.2 351.992,-623.2 357.992,-623.2 357.992,-623.2 469.8922,-623.2 469.8922,-623.2 475.8922,-623.2 481.8922,-629.2 481.8922,-635.2 481.8922,-635.2 481.8922,-703.2 481.8922,-703.2 481.8922,-709.2 475.8922,-715.2 469.8922,-715.2"/>
            <text text-anchor="start" x="379.3166" y="-698.6" font-family="Helvetica,sans-Serif" font-size="14.00"
                  fill="#000000">特征4 ≤ 0.8
            </text>
            <text text-anchor="start" x="377.5645" y="-681.8" font-family="Helvetica,sans-Serif" font-size="14.00"
                  fill="#000000">gini = 0.667
            </text>
            <text text-anchor="start" x="368.2328" y="-665" font-family="Helvetica,sans-Serif" font-size="14.00"
                  fill="#000000">samples = 150
            </text>
            <text text-anchor="start" x="354.2174" y="-648.2" font-family="Helvetica,sans-Serif" font-size="14.00"
                  fill="#000000">value = [50, 50, 50]
            </text>
            <text text-anchor="start" x="375.6234" y="-631.4" font-family="Helvetica,sans-Serif" font-size="14.00"
                  fill="#000000">class = A类
            </text>
        </g>
        <!-- 1 -->
        <g id="node2" class="node">
            <title>1</title>
            <path fill="#e58139" stroke="#000000"
                  d="M390.8264,-578.9003C390.8264,-578.9003 295.0578,-578.9003 295.0578,-578.9003 289.0578,-578.9003 283.0578,-572.9003 283.0578,-566.9003 283.0578,-566.9003 283.0578,-515.4997 283.0578,-515.4997 283.0578,-509.4997 289.0578,-503.4997 295.0578,-503.4997 295.0578,-503.4997 390.8264,-503.4997 390.8264,-503.4997 396.8264,-503.4997 402.8264,-509.4997 402.8264,-515.4997 402.8264,-515.4997 402.8264,-566.9003 402.8264,-566.9003 402.8264,-572.9003 396.8264,-578.9003 390.8264,-578.9003"/>
            <text text-anchor="start" x="314.3471" y="-562.2" font-family="Helvetica,sans-Serif" font-size="14.00"
                  fill="#000000">gini = 0.0
            </text>
            <text text-anchor="start" x="301.1241" y="-545.4" font-family="Helvetica,sans-Serif" font-size="14.00"
                  fill="#000000">samples = 50
            </text>
            <text text-anchor="start" x="291" y="-528.6" font-family="Helvetica,sans-Serif" font-size="14.00"
                  fill="#000000">value = [50, 0, 0]
            </text>
            <text text-anchor="start" x="304.6234" y="-511.8" font-family="Helvetica,sans-Serif" font-size="14.00"
                  fill="#000000">class = A类
            </text>
        </g>
        <!-- 0&#45;&gt;1 -->
        <g id="edge1" class="edge">
            <title>0&#45;&gt;1</title>
            <path fill="none" stroke="#000000"
                  d="M388.3095,-622.9891C381.9783,-611.5752 375.1924,-599.3413 368.8483,-587.9042"/>
            <polygon fill="#000000" stroke="#000000"
                     points="371.7838,-585.9806 363.8724,-578.9335 365.6624,-589.376 371.7838,-585.9806"/>
            <text text-anchor="middle" x="356.9884" y="-598.767" font-family="Helvetica,sans-Serif" font-size="14.00"
                  fill="#000000">True
            </text>
        </g>
        <!-- 2 -->
        <g id="node3" class="node">
            <title>2</title>
            <path fill="transparent" stroke="#000000"
                  d="M536.6093,-587.2C536.6093,-587.2 433.2749,-587.2 433.2749,-587.2 427.2749,-587.2 421.2749,-581.2 421.2749,-575.2 421.2749,-575.2 421.2749,-507.2 421.2749,-507.2 421.2749,-501.2 427.2749,-495.2 433.2749,-495.2 433.2749,-495.2 536.6093,-495.2 536.6093,-495.2 542.6093,-495.2 548.6093,-501.2 548.6093,-507.2 548.6093,-507.2 548.6093,-575.2 548.6093,-575.2 548.6093,-581.2 542.6093,-587.2 536.6093,-587.2"/>
            <text text-anchor="start" x="446.4253" y="-570.6" font-family="Helvetica,sans-Serif" font-size="14.00"
                  fill="#000000">特征4 ≤ 1.75
            </text>
            <text text-anchor="start" x="456.3471" y="-553.8" font-family="Helvetica,sans-Serif" font-size="14.00"
                  fill="#000000">gini = 0.5
            </text>
            <text text-anchor="start" x="439.2328" y="-537" font-family="Helvetica,sans-Serif" font-size="14.00"
                  fill="#000000">samples = 100
            </text>
            <text text-anchor="start" x="429.1087" y="-520.2" font-family="Helvetica,sans-Serif" font-size="14.00"
                  fill="#000000">value = [0, 50, 50]
            </text>
            <text text-anchor="start" x="446.6234" y="-503.4" font-family="Helvetica,sans-Serif" font-size="14.00"
                  fill="#000000">class = B类
            </text>
        </g>
        <!-- 0&#45;&gt;2 -->
        <g id="edge2" class="edge">
            <title>0&#45;&gt;2</title>
            <path fill="none" stroke="#000000"
                  d="M439.5747,-622.9891C444.4008,-614.2885 449.4912,-605.1115 454.4487,-596.1741"/>
            <polygon fill="#000000" stroke="#000000"
                     points="457.5571,-597.7856 459.3471,-587.3431 451.4357,-594.3902 457.5571,-597.7856"/>
            <text text-anchor="middle" x="466.2311" y="-607.1766" font-family="Helvetica,sans-Serif" font-size="14.00"
                  fill="#000000">False
            </text>
        </g>
        <!-- 3 -->
        <g id="node4" class="node">
            <title>3</title>
            <path fill="#39e581" fill-opacity="0.898039" stroke="#000000"
                  d="M434.8264,-459.2C434.8264,-459.2 339.0578,-459.2 339.0578,-459.2 333.0578,-459.2 327.0578,-453.2 327.0578,-447.2 327.0578,-447.2 327.0578,-379.2 327.0578,-379.2 327.0578,-373.2 333.0578,-367.2 339.0578,-367.2 339.0578,-367.2 434.8264,-367.2 434.8264,-367.2 440.8264,-367.2 446.8264,-373.2 446.8264,-379.2 446.8264,-379.2 446.8264,-447.2 446.8264,-447.2 446.8264,-453.2 440.8264,-459.2 434.8264,-459.2"/>
            <text text-anchor="start" x="348.4253" y="-442.6" font-family="Helvetica,sans-Serif" font-size="14.00"
                  fill="#000000">特征3 ≤ 4.95
            </text>
            <text text-anchor="start" x="350.5645" y="-425.8" font-family="Helvetica,sans-Serif" font-size="14.00"
                  fill="#000000">gini = 0.168
            </text>
            <text text-anchor="start" x="345.1241" y="-409" font-family="Helvetica,sans-Serif" font-size="14.00"
                  fill="#000000">samples = 54
            </text>
            <text text-anchor="start" x="335" y="-392.2" font-family="Helvetica,sans-Serif" font-size="14.00"
                  fill="#000000">value = [0, 49, 5]
            </text>
            <text text-anchor="start" x="348.6234" y="-375.4" font-family="Helvetica,sans-Serif" font-size="14.00"
                  fill="#000000">class = B类
            </text>
        </g>
        <!-- 2&#45;&gt;3 -->
        <g id="edge3" class="edge">
            <title>2&#45;&gt;3</title>
            <path fill="none" stroke="#000000"
                  d="M449.5619,-494.9891C442.6923,-486.0166 435.4348,-476.5375 428.3907,-467.3369"/>
            <polygon fill="#000000" stroke="#000000"
                     points="431.1286,-465.1555 422.2704,-459.3431 425.5705,-469.4109 431.1286,-465.1555"/>
        </g>
        <!-- 12 -->
        <g id="node13" class="node">
            <title>12</title>
            <path fill="#8139e5" fill-opacity="0.976471" stroke="#000000"
                  d="M631.8264,-459.2C631.8264,-459.2 536.0578,-459.2 536.0578,-459.2 530.0578,-459.2 524.0578,-453.2 524.0578,-447.2 524.0578,-447.2 524.0578,-379.2 524.0578,-379.2 524.0578,-373.2 530.0578,-367.2 536.0578,-367.2 536.0578,-367.2 631.8264,-367.2 631.8264,-367.2 637.8264,-367.2 643.8264,-373.2 643.8264,-379.2 643.8264,-379.2 643.8264,-447.2 643.8264,-447.2 643.8264,-453.2 637.8264,-459.2 631.8264,-459.2"/>
            <text text-anchor="start" x="545.4253" y="-442.6" font-family="Helvetica,sans-Serif" font-size="14.00"
                  fill="#000000">特征3 ≤ 4.85
            </text>
            <text text-anchor="start" x="547.5645" y="-425.8" font-family="Helvetica,sans-Serif" font-size="14.00"
                  fill="#000000">gini = 0.043
            </text>
            <text text-anchor="start" x="542.1241" y="-409" font-family="Helvetica,sans-Serif" font-size="14.00"
                  fill="#000000">samples = 46
            </text>
            <text text-anchor="start" x="532" y="-392.2" font-family="Helvetica,sans-Serif" font-size="14.00"
                  fill="#000000">value = [0, 1, 45]
            </text>
            <text text-anchor="start" x="545.2384" y="-375.4" font-family="Helvetica,sans-Serif" font-size="14.00"
                  fill="#000000">class = C类
            </text>
        </g>
        <!-- 2&#45;&gt;12 -->
        <g id="edge12" class="edge">
            <title>2&#45;&gt;12</title>
            <path fill="none" stroke="#000000"
                  d="M520.6834,-494.9891C527.623,-486.0166 534.9545,-476.5375 542.0706,-467.3369"/>
            <polygon fill="#000000" stroke="#000000"
                     points="544.9038,-469.3946 548.2533,-459.3431 539.3667,-465.1119 544.9038,-469.3946"/>
        </g>
        <!-- 4 -->
        <g id="node5" class="node">
            <title>4</title>
            <path fill="#39e581" fill-opacity="0.980392" stroke="#000000"
                  d="M241.8264,-331.2C241.8264,-331.2 146.0578,-331.2 146.0578,-331.2 140.0578,-331.2 134.0578,-325.2 134.0578,-319.2 134.0578,-319.2 134.0578,-251.2 134.0578,-251.2 134.0578,-245.2 140.0578,-239.2 146.0578,-239.2 146.0578,-239.2 241.8264,-239.2 241.8264,-239.2 247.8264,-239.2 253.8264,-245.2 253.8264,-251.2 253.8264,-251.2 253.8264,-319.2 253.8264,-319.2 253.8264,-325.2 247.8264,-331.2 241.8264,-331.2"/>
            <text text-anchor="start" x="155.4253" y="-314.6" font-family="Helvetica,sans-Serif" font-size="14.00"
                  fill="#000000">特征4 ≤ 1.65
            </text>
            <text text-anchor="start" x="157.5645" y="-297.8" font-family="Helvetica,sans-Serif" font-size="14.00"
                  fill="#000000">gini = 0.041
            </text>
            <text text-anchor="start" x="152.1241" y="-281" font-family="Helvetica,sans-Serif" font-size="14.00"
                  fill="#000000">samples = 48
            </text>
            <text text-anchor="start" x="142" y="-264.2" font-family="Helvetica,sans-Serif" font-size="14.00"
                  fill="#000000">value = [0, 47, 1]
            </text>
            <text text-anchor="start" x="155.6234" y="-247.4" font-family="Helvetica,sans-Serif" font-size="14.00"
                  fill="#000000">class = B类
            </text>
        </g>
        <!-- 3&#45;&gt;4 -->
        <g id="edge4" class="edge">
            <title>3&#45;&gt;4</title>
            <path fill="none" stroke="#000000"
                  d="M326.9336,-373.4016C306.5099,-359.8564 283.5287,-344.615 262.488,-330.6605"/>
            <polygon fill="#000000" stroke="#000000"
                     points="264.1817,-327.584 253.9134,-324.9737 260.3127,-333.4177 264.1817,-327.584"/>
        </g>
        <!-- 7 -->
        <g id="node8" class="node">
            <title>7</title>
            <path fill="#8139e5" fill-opacity="0.498039" stroke="#000000"
                  d="M431.0437,-331.2C431.0437,-331.2 342.8405,-331.2 342.8405,-331.2 336.8405,-331.2 330.8405,-325.2 330.8405,-319.2 330.8405,-319.2 330.8405,-251.2 330.8405,-251.2 330.8405,-245.2 336.8405,-239.2 342.8405,-239.2 342.8405,-239.2 431.0437,-239.2 431.0437,-239.2 437.0437,-239.2 443.0437,-245.2 443.0437,-251.2 443.0437,-251.2 443.0437,-319.2 443.0437,-319.2 443.0437,-325.2 437.0437,-331.2 431.0437,-331.2"/>
            <text text-anchor="start" x="348.4253" y="-314.6" font-family="Helvetica,sans-Serif" font-size="14.00"
                  fill="#000000">特征4 ≤ 1.55
            </text>
            <text text-anchor="start" x="350.5645" y="-297.8" font-family="Helvetica,sans-Serif" font-size="14.00"
                  fill="#000000">gini = 0.444
            </text>
            <text text-anchor="start" x="349.0154" y="-281" font-family="Helvetica,sans-Serif" font-size="14.00"
                  fill="#000000">samples = 6
            </text>
            <text text-anchor="start" x="338.8913" y="-264.2" font-family="Helvetica,sans-Serif" font-size="14.00"
                  fill="#000000">value = [0, 2, 4]
            </text>
            <text text-anchor="start" x="348.2384" y="-247.4" font-family="Helvetica,sans-Serif" font-size="14.00"
                  fill="#000000">class = C类
            </text>
        </g>
        <!-- 3&#45;&gt;7 -->
        <g id="edge7" class="edge">
            <title>3&#45;&gt;7</title>
            <path fill="none" stroke="#000000"
                  d="M386.9421,-366.9891C386.9421,-358.7417 386.9421,-350.0661 386.9421,-341.5724"/>
            <polygon fill="#000000" stroke="#000000"
                     points="390.4422,-341.3431 386.9421,-331.3431 383.4422,-341.3431 390.4422,-341.3431"/>
        </g>
        <!-- 5 -->
        <g id="node6" class="node">
            <title>5</title>
            <path fill="#39e581" stroke="#000000"
                  d="M107.8264,-194.9003C107.8264,-194.9003 12.0578,-194.9003 12.0578,-194.9003 6.0578,-194.9003 .0578,-188.9003 .0578,-182.9003 .0578,-182.9003 .0578,-131.4997 .0578,-131.4997 .0578,-125.4997 6.0578,-119.4997 12.0578,-119.4997 12.0578,-119.4997 107.8264,-119.4997 107.8264,-119.4997 113.8264,-119.4997 119.8264,-125.4997 119.8264,-131.4997 119.8264,-131.4997 119.8264,-182.9003 119.8264,-182.9003 119.8264,-188.9003 113.8264,-194.9003 107.8264,-194.9003"/>
            <text text-anchor="start" x="31.3471" y="-178.2" font-family="Helvetica,sans-Serif" font-size="14.00"
                  fill="#000000">gini = 0.0
            </text>
            <text text-anchor="start" x="18.1241" y="-161.4" font-family="Helvetica,sans-Serif" font-size="14.00"
                  fill="#000000">samples = 47
            </text>
            <text text-anchor="start" x="8" y="-144.6" font-family="Helvetica,sans-Serif" font-size="14.00"
                  fill="#000000">value = [0, 47, 0]
            </text>
            <text text-anchor="start" x="21.6234" y="-127.8" font-family="Helvetica,sans-Serif" font-size="14.00"
                  fill="#000000">class = B类
            </text>
        </g>
        <!-- 4&#45;&gt;5 -->
        <g id="edge5" class="edge">
            <title>4&#45;&gt;5</title>
            <path fill="none" stroke="#000000"
                  d="M145.565,-238.9891C132.9063,-226.8971 119.2841,-213.8849 106.7109,-201.8746"/>
            <polygon fill="#000000" stroke="#000000"
                     points="109.0931,-199.31 99.4444,-194.9335 104.2579,-204.3718 109.0931,-199.31"/>
        </g>
        <!-- 6 -->
        <g id="node7" class="node">
            <title>6</title>
            <path fill="#8139e5" stroke="#000000"
                  d="M238.0437,-194.9003C238.0437,-194.9003 149.8405,-194.9003 149.8405,-194.9003 143.8405,-194.9003 137.8405,-188.9003 137.8405,-182.9003 137.8405,-182.9003 137.8405,-131.4997 137.8405,-131.4997 137.8405,-125.4997 143.8405,-119.4997 149.8405,-119.4997 149.8405,-119.4997 238.0437,-119.4997 238.0437,-119.4997 244.0437,-119.4997 250.0437,-125.4997 250.0437,-131.4997 250.0437,-131.4997 250.0437,-182.9003 250.0437,-182.9003 250.0437,-188.9003 244.0437,-194.9003 238.0437,-194.9003"/>
            <text text-anchor="start" x="165.3471" y="-178.2" font-family="Helvetica,sans-Serif" font-size="14.00"
                  fill="#000000">gini = 0.0
            </text>
            <text text-anchor="start" x="156.0154" y="-161.4" font-family="Helvetica,sans-Serif" font-size="14.00"
                  fill="#000000">samples = 1
            </text>
            <text text-anchor="start" x="145.8913" y="-144.6" font-family="Helvetica,sans-Serif" font-size="14.00"
                  fill="#000000">value = [0, 0, 1]
            </text>
            <text text-anchor="start" x="155.2384" y="-127.8" font-family="Helvetica,sans-Serif" font-size="14.00"
                  fill="#000000">class = C类
            </text>
        </g>
        <!-- 4&#45;&gt;6 -->
        <g id="edge6" class="edge">
            <title>4&#45;&gt;6</title>
            <path fill="none" stroke="#000000"
                  d="M193.9421,-238.9891C193.9421,-228.0272 193.9421,-216.309 193.9421,-205.2667"/>
            <polygon fill="#000000" stroke="#000000"
                     points="197.4422,-204.9335 193.9421,-194.9335 190.4422,-204.9335 197.4422,-204.9335"/>
        </g>
        <!-- 8 -->
        <g id="node9" class="node">
            <title>8</title>
            <path fill="#8139e5" stroke="#000000"
                  d="M368.0437,-194.9003C368.0437,-194.9003 279.8405,-194.9003 279.8405,-194.9003 273.8405,-194.9003 267.8405,-188.9003 267.8405,-182.9003 267.8405,-182.9003 267.8405,-131.4997 267.8405,-131.4997 267.8405,-125.4997 273.8405,-119.4997 279.8405,-119.4997 279.8405,-119.4997 368.0437,-119.4997 368.0437,-119.4997 374.0437,-119.4997 380.0437,-125.4997 380.0437,-131.4997 380.0437,-131.4997 380.0437,-182.9003 380.0437,-182.9003 380.0437,-188.9003 374.0437,-194.9003 368.0437,-194.9003"/>
            <text text-anchor="start" x="295.3471" y="-178.2" font-family="Helvetica,sans-Serif" font-size="14.00"
                  fill="#000000">gini = 0.0
            </text>
            <text text-anchor="start" x="286.0154" y="-161.4" font-family="Helvetica,sans-Serif" font-size="14.00"
                  fill="#000000">samples = 3
            </text>
            <text text-anchor="start" x="275.8913" y="-144.6" font-family="Helvetica,sans-Serif" font-size="14.00"
                  fill="#000000">value = [0, 0, 3]
            </text>
            <text text-anchor="start" x="285.2384" y="-127.8" font-family="Helvetica,sans-Serif" font-size="14.00"
                  fill="#000000">class = C类
            </text>
        </g>
        <!-- 7&#45;&gt;8 -->
        <g id="edge8" class="edge">
            <title>7&#45;&gt;8</title>
            <path fill="none" stroke="#000000"
                  d="M364.1977,-238.9891C358.6355,-227.6882 352.6777,-215.5835 347.0966,-204.2441"/>
            <polygon fill="#000000" stroke="#000000"
                     points="350.0703,-202.36 342.5141,-194.9335 343.7898,-205.4513 350.0703,-202.36"/>
        </g>
        <!-- 9 -->
        <g id="node10" class="node">
            <title>9</title>
            <path fill="#39e581" fill-opacity="0.498039" stroke="#000000"
                  d="M498.0437,-203.2C498.0437,-203.2 409.8405,-203.2 409.8405,-203.2 403.8405,-203.2 397.8405,-197.2 397.8405,-191.2 397.8405,-191.2 397.8405,-123.2 397.8405,-123.2 397.8405,-117.2 403.8405,-111.2 409.8405,-111.2 409.8405,-111.2 498.0437,-111.2 498.0437,-111.2 504.0437,-111.2 510.0437,-117.2 510.0437,-123.2 510.0437,-123.2 510.0437,-191.2 510.0437,-191.2 510.0437,-197.2 504.0437,-203.2 498.0437,-203.2"/>
            <text text-anchor="start" x="415.4253" y="-186.6" font-family="Helvetica,sans-Serif" font-size="14.00"
                  fill="#000000">特征3 ≤ 5.45
            </text>
            <text text-anchor="start" x="417.5645" y="-169.8" font-family="Helvetica,sans-Serif" font-size="14.00"
                  fill="#000000">gini = 0.444
            </text>
            <text text-anchor="start" x="416.0154" y="-153" font-family="Helvetica,sans-Serif" font-size="14.00"
                  fill="#000000">samples = 3
            </text>
            <text text-anchor="start" x="405.8913" y="-136.2" font-family="Helvetica,sans-Serif" font-size="14.00"
                  fill="#000000">value = [0, 2, 1]
            </text>
            <text text-anchor="start" x="415.6234" y="-119.4" font-family="Helvetica,sans-Serif" font-size="14.00"
                  fill="#000000">class = B类
            </text>
        </g>
        <!-- 7&#45;&gt;9 -->
        <g id="edge9" class="edge">
            <title>7&#45;&gt;9</title>
            <path fill="none" stroke="#000000"
                  d="M411.1306,-238.9891C415.6374,-230.3791 420.3884,-221.3026 425.0204,-212.4535"/>
            <polygon fill="#000000" stroke="#000000"
                     points="428.2524,-213.8259 429.7891,-203.3431 422.0506,-210.5796 428.2524,-213.8259"/>
        </g>
        <!-- 10 -->
        <g id="node11" class="node">
            <title>10</title>
            <path fill="#39e581" stroke="#000000"
                  d="M433.0437,-75.3003C433.0437,-75.3003 344.8405,-75.3003 344.8405,-75.3003 338.8405,-75.3003 332.8405,-69.3003 332.8405,-63.3003 332.8405,-63.3003 332.8405,-11.8997 332.8405,-11.8997 332.8405,-5.8997 338.8405,.1003 344.8405,.1003 344.8405,.1003 433.0437,.1003 433.0437,.1003 439.0437,.1003 445.0437,-5.8997 445.0437,-11.8997 445.0437,-11.8997 445.0437,-63.3003 445.0437,-63.3003 445.0437,-69.3003 439.0437,-75.3003 433.0437,-75.3003"/>
            <text text-anchor="start" x="360.3471" y="-58.6" font-family="Helvetica,sans-Serif" font-size="14.00"
                  fill="#000000">gini = 0.0
            </text>
            <text text-anchor="start" x="351.0154" y="-41.8" font-family="Helvetica,sans-Serif" font-size="14.00"
                  fill="#000000">samples = 2
            </text>
            <text text-anchor="start" x="340.8913" y="-25" font-family="Helvetica,sans-Serif" font-size="14.00"
                  fill="#000000">value = [0, 2, 0]
            </text>
            <text text-anchor="start" x="350.6234" y="-8.2" font-family="Helvetica,sans-Serif" font-size="14.00"
                  fill="#000000">class = B类
            </text>
        </g>
        <!-- 9&#45;&gt;10 -->
        <g id="edge10" class="edge">
            <title>9&#45;&gt;10</title>
            <path fill="none" stroke="#000000"
                  d="M428.8114,-110.9595C424.0388,-102.178 419.0424,-92.9846 414.264,-84.1922"/>
            <polygon fill="#000000" stroke="#000000"
                     points="417.2321,-82.3238 409.3817,-75.2088 411.0817,-85.6664 417.2321,-82.3238"/>
        </g>
        <!-- 11 -->
        <g id="node12" class="node">
            <title>11</title>
            <path fill="#8139e5" stroke="#000000"
                  d="M563.0437,-75.3003C563.0437,-75.3003 474.8405,-75.3003 474.8405,-75.3003 468.8405,-75.3003 462.8405,-69.3003 462.8405,-63.3003 462.8405,-63.3003 462.8405,-11.8997 462.8405,-11.8997 462.8405,-5.8997 468.8405,.1003 474.8405,.1003 474.8405,.1003 563.0437,.1003 563.0437,.1003 569.0437,.1003 575.0437,-5.8997 575.0437,-11.8997 575.0437,-11.8997 575.0437,-63.3003 575.0437,-63.3003 575.0437,-69.3003 569.0437,-75.3003 563.0437,-75.3003"/>
            <text text-anchor="start" x="490.3471" y="-58.6" font-family="Helvetica,sans-Serif" font-size="14.00"
                  fill="#000000">gini = 0.0
            </text>
            <text text-anchor="start" x="481.0154" y="-41.8" font-family="Helvetica,sans-Serif" font-size="14.00"
                  fill="#000000">samples = 1
            </text>
            <text text-anchor="start" x="470.8913" y="-25" font-family="Helvetica,sans-Serif" font-size="14.00"
                  fill="#000000">value = [0, 0, 1]
            </text>
            <text text-anchor="start" x="480.2384" y="-8.2" font-family="Helvetica,sans-Serif" font-size="14.00"
                  fill="#000000">class = C类
            </text>
        </g>
        <!-- 9&#45;&gt;11 -->
        <g id="edge11" class="edge">
            <title>9&#45;&gt;11</title>
            <path fill="none" stroke="#000000"
                  d="M479.0728,-110.9595C483.8454,-102.178 488.8418,-92.9846 493.6202,-84.1922"/>
            <polygon fill="#000000" stroke="#000000"
                     points="496.8025,-85.6664 498.5025,-75.2088 490.6521,-82.3238 496.8025,-85.6664"/>
        </g>
        <!-- 13 -->
        <g id="node14" class="node">
            <title>13</title>
            <path fill="#8139e5" fill-opacity="0.498039" stroke="#000000"
                  d="M628.0437,-331.2C628.0437,-331.2 539.8405,-331.2 539.8405,-331.2 533.8405,-331.2 527.8405,-325.2 527.8405,-319.2 527.8405,-319.2 527.8405,-251.2 527.8405,-251.2 527.8405,-245.2 533.8405,-239.2 539.8405,-239.2 539.8405,-239.2 628.0437,-239.2 628.0437,-239.2 634.0437,-239.2 640.0437,-245.2 640.0437,-251.2 640.0437,-251.2 640.0437,-319.2 640.0437,-319.2 640.0437,-325.2 634.0437,-331.2 628.0437,-331.2"/>
            <text text-anchor="start" x="549.3166" y="-314.6" font-family="Helvetica,sans-Serif" font-size="14.00"
                  fill="#000000">特征2 ≤ 3.1
            </text>
            <text text-anchor="start" x="547.5645" y="-297.8" font-family="Helvetica,sans-Serif" font-size="14.00"
                  fill="#000000">gini = 0.444
            </text>
            <text text-anchor="start" x="546.0154" y="-281" font-family="Helvetica,sans-Serif" font-size="14.00"
                  fill="#000000">samples = 3
            </text>
            <text text-anchor="start" x="535.8913" y="-264.2" font-family="Helvetica,sans-Serif" font-size="14.00"
                  fill="#000000">value = [0, 1, 2]
            </text>
            <text text-anchor="start" x="545.2384" y="-247.4" font-family="Helvetica,sans-Serif" font-size="14.00"
                  fill="#000000">class = C类
            </text>
        </g>
        <!-- 12&#45;&gt;13 -->
        <g id="edge13" class="edge">
            <title>12&#45;&gt;13</title>
            <path fill="none" stroke="#000000"
                  d="M583.9421,-366.9891C583.9421,-358.7417 583.9421,-350.0661 583.9421,-341.5724"/>
            <polygon fill="#000000" stroke="#000000"
                     points="587.4422,-341.3431 583.9421,-331.3431 580.4422,-341.3431 587.4422,-341.3431"/>
        </g>
        <!-- 16 -->
        <g id="node17" class="node">
            <title>16</title>
            <path fill="#8139e5" stroke="#000000"
                  d="M765.8264,-322.9003C765.8264,-322.9003 670.0578,-322.9003 670.0578,-322.9003 664.0578,-322.9003 658.0578,-316.9003 658.0578,-310.9003 658.0578,-310.9003 658.0578,-259.4997 658.0578,-259.4997 658.0578,-253.4997 664.0578,-247.4997 670.0578,-247.4997 670.0578,-247.4997 765.8264,-247.4997 765.8264,-247.4997 771.8264,-247.4997 777.8264,-253.4997 777.8264,-259.4997 777.8264,-259.4997 777.8264,-310.9003 777.8264,-310.9003 777.8264,-316.9003 771.8264,-322.9003 765.8264,-322.9003"/>
            <text text-anchor="start" x="689.3471" y="-306.2" font-family="Helvetica,sans-Serif" font-size="14.00"
                  fill="#000000">gini = 0.0
            </text>
            <text text-anchor="start" x="676.1241" y="-289.4" font-family="Helvetica,sans-Serif" font-size="14.00"
                  fill="#000000">samples = 43
            </text>
            <text text-anchor="start" x="666" y="-272.6" font-family="Helvetica,sans-Serif" font-size="14.00"
                  fill="#000000">value = [0, 0, 43]
            </text>
            <text text-anchor="start" x="679.2384" y="-255.8" font-family="Helvetica,sans-Serif" font-size="14.00"
                  fill="#000000">class = C类
            </text>
        </g>
        <!-- 12&#45;&gt;16 -->
        <g id="edge16" class="edge">
            <title>12&#45;&gt;16</title>
            <path fill="none" stroke="#000000"
                  d="M632.3192,-366.9891C644.9779,-354.8971 658.6001,-341.8849 671.1733,-329.8746"/>
            <polygon fill="#000000" stroke="#000000"
                     points="673.6263,-332.3718 678.4398,-322.9335 668.7911,-327.31 673.6263,-332.3718"/>
        </g>
        <!-- 14 -->
        <g id="node15" class="node">
            <title>14</title>
            <path fill="#8139e5" stroke="#000000"
                  d="M628.0437,-194.9003C628.0437,-194.9003 539.8405,-194.9003 539.8405,-194.9003 533.8405,-194.9003 527.8405,-188.9003 527.8405,-182.9003 527.8405,-182.9003 527.8405,-131.4997 527.8405,-131.4997 527.8405,-125.4997 533.8405,-119.4997 539.8405,-119.4997 539.8405,-119.4997 628.0437,-119.4997 628.0437,-119.4997 634.0437,-119.4997 640.0437,-125.4997 640.0437,-131.4997 640.0437,-131.4997 640.0437,-182.9003 640.0437,-182.9003 640.0437,-188.9003 634.0437,-194.9003 628.0437,-194.9003"/>
            <text text-anchor="start" x="555.3471" y="-178.2" font-family="Helvetica,sans-Serif" font-size="14.00"
                  fill="#000000">gini = 0.0
            </text>
            <text text-anchor="start" x="546.0154" y="-161.4" font-family="Helvetica,sans-Serif" font-size="14.00"
                  fill="#000000">samples = 2
            </text>
            <text text-anchor="start" x="535.8913" y="-144.6" font-family="Helvetica,sans-Serif" font-size="14.00"
                  fill="#000000">value = [0, 0, 2]
            </text>
            <text text-anchor="start" x="545.2384" y="-127.8" font-family="Helvetica,sans-Serif" font-size="14.00"
                  fill="#000000">class = C类
            </text>
        </g>
        <!-- 13&#45;&gt;14 -->
        <g id="edge14" class="edge">
            <title>13&#45;&gt;14</title>
            <path fill="none" stroke="#000000"
                  d="M583.9421,-238.9891C583.9421,-228.0272 583.9421,-216.309 583.9421,-205.2667"/>
            <polygon fill="#000000" stroke="#000000"
                     points="587.4422,-204.9335 583.9421,-194.9335 580.4422,-204.9335 587.4422,-204.9335"/>
        </g>
        <!-- 15 -->
        <g id="node16" class="node">
            <title>15</title>
            <path fill="#39e581" stroke="#000000"
                  d="M758.0437,-194.9003C758.0437,-194.9003 669.8405,-194.9003 669.8405,-194.9003 663.8405,-194.9003 657.8405,-188.9003 657.8405,-182.9003 657.8405,-182.9003 657.8405,-131.4997 657.8405,-131.4997 657.8405,-125.4997 663.8405,-119.4997 669.8405,-119.4997 669.8405,-119.4997 758.0437,-119.4997 758.0437,-119.4997 764.0437,-119.4997 770.0437,-125.4997 770.0437,-131.4997 770.0437,-131.4997 770.0437,-182.9003 770.0437,-182.9003 770.0437,-188.9003 764.0437,-194.9003 758.0437,-194.9003"/>
            <text text-anchor="start" x="685.3471" y="-178.2" font-family="Helvetica,sans-Serif" font-size="14.00"
                  fill="#000000">gini = 0.0
            </text>
            <text text-anchor="start" x="676.0154" y="-161.4" font-family="Helvetica,sans-Serif" font-size="14.00"
                  fill="#000000">samples = 1
            </text>
            <text text-anchor="start" x="665.8913" y="-144.6" font-family="Helvetica,sans-Serif" font-size="14.00"
                  fill="#000000">value = [0, 1, 0]
            </text>
            <text text-anchor="start" x="675.6234" y="-127.8" font-family="Helvetica,sans-Serif" font-size="14.00"
                  fill="#000000">class = B类
            </text>
        </g>
        <!-- 13&#45;&gt;15 -->
        <g id="edge15" class="edge">
            <title>13&#45;&gt;15</title>
            <path fill="none" stroke="#000000"
                  d="M630.8751,-238.9891C643.0412,-227.0101 656.1246,-214.128 668.2272,-202.2116"/>
            <polygon fill="#000000" stroke="#000000"
                     points="670.9489,-204.4436 675.619,-194.9335 666.0377,-199.4556 670.9489,-204.4436"/>
        </g>
    </g>
</svg>
