<?xml version="1.0" encoding="UTF-8" standalone="no"?>
<!DOCTYPE svg PUBLIC "-//W3C//DTD SVG 1.1//EN"
        "http://www.w3.org/Graphics/SVG/1.1/DTD/svg11.dtd">
<!-- Generated by graphviz version 2.40.1 (20161225.0304)
 -->
<!-- Title: Tree Pages: 1 -->
<svg width="789pt" height="723pt"
     viewBox="0.00 0.00 788.88 723.20" xmlns="http://www.w3.org/2000/svg">
    <g id="graph0" class="graph" transform="scale(1 1) rotate(0) translate(4 719.2)">
        <title>Tree</title>
        <polygon fill="#ffffff" stroke="transparent" points="-4,4 -4,-719.2 784.8842,-719.2 784.8842,4 -4,4"/>
        <!-- 0 -->
        <g id="node1" class="node">
            <title>0</title>
            <path fill="transparent" stroke="#000000"
                  d="M471.8922,-715.2C471.8922,-715.2 359.992,-715.2 359.992,-715.2 353.992,-715.2 347.992,-709.2 347.992,-703.2 347.992,-703.2 347.992,-635.2 347.992,-635.2 347.992,-629.2 353.992,-623.2 359.992,-623.2 359.992,-623.2 471.8922,-623.2 471.8922,-623.2 477.8922,-623.2 483.8922,-629.2 483.8922,-635.2 483.8922,-635.2 483.8922,-703.2 483.8922,-703.2 483.8922,-709.2 477.8922,-715.2 471.8922,-715.2"/>
            <text text-anchor="middle" x="415.9421" y="-698.6" font-family="Helvetica,sans-Serif" font-size="14.00"
                  fill="#000000">特征3 &lt;= 2.45
            </text>
            <text text-anchor="middle" x="415.9421" y="-681.8" font-family="Helvetica,sans-Serif" font-size="14.00"
                  fill="#000000">entropy = 1.585
            </text>
            <text text-anchor="middle" x="415.9421" y="-665" font-family="Helvetica,sans-Serif" font-size="14.00"
                  fill="#000000">samples = 150
            </text>
            <text text-anchor="middle" x="415.9421" y="-648.2" font-family="Helvetica,sans-Serif" font-size="14.00"
                  fill="#000000">value = [50, 50, 50]
            </text>
            <text text-anchor="middle" x="415.9421" y="-631.4" font-family="Helvetica,sans-Serif" font-size="14.00"
                  fill="#000000">class = A类
            </text>
        </g>
        <!-- 1 -->
        <g id="node2" class="node">
            <title>1</title>
            <path fill="#e58139" stroke="#000000"
                  d="M392.8264,-578.9003C392.8264,-578.9003 297.0578,-578.9003 297.0578,-578.9003 291.0578,-578.9003 285.0578,-572.9003 285.0578,-566.9003 285.0578,-566.9003 285.0578,-515.4997 285.0578,-515.4997 285.0578,-509.4997 291.0578,-503.4997 297.0578,-503.4997 297.0578,-503.4997 392.8264,-503.4997 392.8264,-503.4997 398.8264,-503.4997 404.8264,-509.4997 404.8264,-515.4997 404.8264,-515.4997 404.8264,-566.9003 404.8264,-566.9003 404.8264,-572.9003 398.8264,-578.9003 392.8264,-578.9003"/>
            <text text-anchor="middle" x="344.9421" y="-562.2" font-family="Helvetica,sans-Serif" font-size="14.00"
                  fill="#000000">entropy = 0.0
            </text>
            <text text-anchor="middle" x="344.9421" y="-545.4" font-family="Helvetica,sans-Serif" font-size="14.00"
                  fill="#000000">samples = 50
            </text>
            <text text-anchor="middle" x="344.9421" y="-528.6" font-family="Helvetica,sans-Serif" font-size="14.00"
                  fill="#000000">value = [50, 0, 0]
            </text>
            <text text-anchor="middle" x="344.9421" y="-511.8" font-family="Helvetica,sans-Serif" font-size="14.00"
                  fill="#000000">class = A类
            </text>
        </g>
        <!-- 0&#45;&gt;1 -->
        <g id="edge1" class="edge">
            <title>0&#45;&gt;1</title>
            <path fill="none" stroke="#000000"
                  d="M390.3095,-622.9891C383.9783,-611.5752 377.1924,-599.3413 370.8483,-587.9042"/>
            <polygon fill="#000000" stroke="#000000"
                     points="373.7838,-585.9806 365.8724,-578.9335 367.6624,-589.376 373.7838,-585.9806"/>
            <text text-anchor="middle" x="358.9884" y="-598.767" font-family="Helvetica,sans-Serif" font-size="14.00"
                  fill="#000000">True
            </text>
        </g>
        <!-- 2 -->
        <g id="node3" class="node">
            <title>2</title>
            <path fill="transparent" stroke="#000000"
                  d="M538.6093,-587.2C538.6093,-587.2 435.2749,-587.2 435.2749,-587.2 429.2749,-587.2 423.2749,-581.2 423.2749,-575.2 423.2749,-575.2 423.2749,-507.2 423.2749,-507.2 423.2749,-501.2 429.2749,-495.2 435.2749,-495.2 435.2749,-495.2 538.6093,-495.2 538.6093,-495.2 544.6093,-495.2 550.6093,-501.2 550.6093,-507.2 550.6093,-507.2 550.6093,-575.2 550.6093,-575.2 550.6093,-581.2 544.6093,-587.2 538.6093,-587.2"/>
            <text text-anchor="middle" x="486.9421" y="-570.6" font-family="Helvetica,sans-Serif" font-size="14.00"
                  fill="#000000">特征4 &lt;= 1.75
            </text>
            <text text-anchor="middle" x="486.9421" y="-553.8" font-family="Helvetica,sans-Serif" font-size="14.00"
                  fill="#000000">entropy = 1.0
            </text>
            <text text-anchor="middle" x="486.9421" y="-537" font-family="Helvetica,sans-Serif" font-size="14.00"
                  fill="#000000">samples = 100
            </text>
            <text text-anchor="middle" x="486.9421" y="-520.2" font-family="Helvetica,sans-Serif" font-size="14.00"
                  fill="#000000">value = [0, 50, 50]
            </text>
            <text text-anchor="middle" x="486.9421" y="-503.4" font-family="Helvetica,sans-Serif" font-size="14.00"
                  fill="#000000">class = B类
            </text>
        </g>
        <!-- 0&#45;&gt;2 -->
        <g id="edge2" class="edge">
            <title>0&#45;&gt;2</title>
            <path fill="none" stroke="#000000"
                  d="M441.5747,-622.9891C446.4008,-614.2885 451.4912,-605.1115 456.4487,-596.1741"/>
            <polygon fill="#000000" stroke="#000000"
                     points="459.5571,-597.7856 461.3471,-587.3431 453.4357,-594.3902 459.5571,-597.7856"/>
            <text text-anchor="middle" x="468.2311" y="-607.1766" font-family="Helvetica,sans-Serif" font-size="14.00"
                  fill="#000000">False
            </text>
        </g>
        <!-- 3 -->
        <g id="node4" class="node">
            <title>3</title>
            <path fill="#39e581" fill-opacity="0.898039" stroke="#000000"
                  d="M435.8264,-459.2C435.8264,-459.2 340.0578,-459.2 340.0578,-459.2 334.0578,-459.2 328.0578,-453.2 328.0578,-447.2 328.0578,-447.2 328.0578,-379.2 328.0578,-379.2 328.0578,-373.2 334.0578,-367.2 340.0578,-367.2 340.0578,-367.2 435.8264,-367.2 435.8264,-367.2 441.8264,-367.2 447.8264,-373.2 447.8264,-379.2 447.8264,-379.2 447.8264,-447.2 447.8264,-447.2 447.8264,-453.2 441.8264,-459.2 435.8264,-459.2"/>
            <text text-anchor="middle" x="387.9421" y="-442.6" font-family="Helvetica,sans-Serif" font-size="14.00"
                  fill="#000000">特征3 &lt;= 4.95
            </text>
            <text text-anchor="middle" x="387.9421" y="-425.8" font-family="Helvetica,sans-Serif" font-size="14.00"
                  fill="#000000">entropy = 0.445
            </text>
            <text text-anchor="middle" x="387.9421" y="-409" font-family="Helvetica,sans-Serif" font-size="14.00"
                  fill="#000000">samples = 54
            </text>
            <text text-anchor="middle" x="387.9421" y="-392.2" font-family="Helvetica,sans-Serif" font-size="14.00"
                  fill="#000000">value = [0, 49, 5]
            </text>
            <text text-anchor="middle" x="387.9421" y="-375.4" font-family="Helvetica,sans-Serif" font-size="14.00"
                  fill="#000000">class = B类
            </text>
        </g>
        <!-- 2&#45;&gt;3 -->
        <g id="edge3" class="edge">
            <title>2&#45;&gt;3</title>
            <path fill="none" stroke="#000000"
                  d="M451.2008,-494.9891C444.2612,-486.0166 436.9297,-476.5375 429.8136,-467.3369"/>
            <polygon fill="#000000" stroke="#000000"
                     points="432.5175,-465.1119 423.6309,-459.3431 426.9804,-469.3946 432.5175,-465.1119"/>
        </g>
        <!-- 12 -->
        <g id="node13" class="node">
            <title>12</title>
            <path fill="#8139e5" fill-opacity="0.976471" stroke="#000000"
                  d="M633.8264,-459.2C633.8264,-459.2 538.0578,-459.2 538.0578,-459.2 532.0578,-459.2 526.0578,-453.2 526.0578,-447.2 526.0578,-447.2 526.0578,-379.2 526.0578,-379.2 526.0578,-373.2 532.0578,-367.2 538.0578,-367.2 538.0578,-367.2 633.8264,-367.2 633.8264,-367.2 639.8264,-367.2 645.8264,-373.2 645.8264,-379.2 645.8264,-379.2 645.8264,-447.2 645.8264,-447.2 645.8264,-453.2 639.8264,-459.2 633.8264,-459.2"/>
            <text text-anchor="middle" x="585.9421" y="-442.6" font-family="Helvetica,sans-Serif" font-size="14.00"
                  fill="#000000">特征3 &lt;= 4.85
            </text>
            <text text-anchor="middle" x="585.9421" y="-425.8" font-family="Helvetica,sans-Serif" font-size="14.00"
                  fill="#000000">entropy = 0.151
            </text>
            <text text-anchor="middle" x="585.9421" y="-409" font-family="Helvetica,sans-Serif" font-size="14.00"
                  fill="#000000">samples = 46
            </text>
            <text text-anchor="middle" x="585.9421" y="-392.2" font-family="Helvetica,sans-Serif" font-size="14.00"
                  fill="#000000">value = [0, 1, 45]
            </text>
            <text text-anchor="middle" x="585.9421" y="-375.4" font-family="Helvetica,sans-Serif" font-size="14.00"
                  fill="#000000">class = C类
            </text>
        </g>
        <!-- 2&#45;&gt;12 -->
        <g id="edge12" class="edge">
            <title>2&#45;&gt;12</title>
            <path fill="none" stroke="#000000"
                  d="M522.6834,-494.9891C529.623,-486.0166 536.9545,-476.5375 544.0706,-467.3369"/>
            <polygon fill="#000000" stroke="#000000"
                     points="546.9038,-469.3946 550.2533,-459.3431 541.3667,-465.1119 546.9038,-469.3946"/>
        </g>
        <!-- 4 -->
        <g id="node5" class="node">
            <title>4</title>
            <path fill="#39e581" fill-opacity="0.980392" stroke="#000000"
                  d="M241.8264,-331.2C241.8264,-331.2 146.0578,-331.2 146.0578,-331.2 140.0578,-331.2 134.0578,-325.2 134.0578,-319.2 134.0578,-319.2 134.0578,-251.2 134.0578,-251.2 134.0578,-245.2 140.0578,-239.2 146.0578,-239.2 146.0578,-239.2 241.8264,-239.2 241.8264,-239.2 247.8264,-239.2 253.8264,-245.2 253.8264,-251.2 253.8264,-251.2 253.8264,-319.2 253.8264,-319.2 253.8264,-325.2 247.8264,-331.2 241.8264,-331.2"/>
            <text text-anchor="middle" x="193.9421" y="-314.6" font-family="Helvetica,sans-Serif" font-size="14.00"
                  fill="#000000">特征4 &lt;= 1.65
            </text>
            <text text-anchor="middle" x="193.9421" y="-297.8" font-family="Helvetica,sans-Serif" font-size="14.00"
                  fill="#000000">entropy = 0.146
            </text>
            <text text-anchor="middle" x="193.9421" y="-281" font-family="Helvetica,sans-Serif" font-size="14.00"
                  fill="#000000">samples = 48
            </text>
            <text text-anchor="middle" x="193.9421" y="-264.2" font-family="Helvetica,sans-Serif" font-size="14.00"
                  fill="#000000">value = [0, 47, 1]
            </text>
            <text text-anchor="middle" x="193.9421" y="-247.4" font-family="Helvetica,sans-Serif" font-size="14.00"
                  fill="#000000">class = B类
            </text>
        </g>
        <!-- 3&#45;&gt;4 -->
        <g id="edge4" class="edge">
            <title>3&#45;&gt;4</title>
            <path fill="none" stroke="#000000"
                  d="M327.8879,-373.5766C307.1592,-359.8999 283.7841,-344.4772 262.4318,-330.3891"/>
            <polygon fill="#000000" stroke="#000000"
                     points="264.321,-327.4424 254.0465,-324.8565 260.4659,-333.2852 264.321,-327.4424"/>
        </g>
        <!-- 7 -->
        <g id="node8" class="node">
            <title>7</title>
            <path fill="#8139e5" fill-opacity="0.498039" stroke="#000000"
                  d="M432.601,-331.2C432.601,-331.2 343.2832,-331.2 343.2832,-331.2 337.2832,-331.2 331.2832,-325.2 331.2832,-319.2 331.2832,-319.2 331.2832,-251.2 331.2832,-251.2 331.2832,-245.2 337.2832,-239.2 343.2832,-239.2 343.2832,-239.2 432.601,-239.2 432.601,-239.2 438.601,-239.2 444.601,-245.2 444.601,-251.2 444.601,-251.2 444.601,-319.2 444.601,-319.2 444.601,-325.2 438.601,-331.2 432.601,-331.2"/>
            <text text-anchor="middle" x="387.9421" y="-314.6" font-family="Helvetica,sans-Serif" font-size="14.00"
                  fill="#000000">特征4 &lt;= 1.55
            </text>
            <text text-anchor="middle" x="387.9421" y="-297.8" font-family="Helvetica,sans-Serif" font-size="14.00"
                  fill="#000000">entropy = 0.918
            </text>
            <text text-anchor="middle" x="387.9421" y="-281" font-family="Helvetica,sans-Serif" font-size="14.00"
                  fill="#000000">samples = 6
            </text>
            <text text-anchor="middle" x="387.9421" y="-264.2" font-family="Helvetica,sans-Serif" font-size="14.00"
                  fill="#000000">value = [0, 2, 4]
            </text>
            <text text-anchor="middle" x="387.9421" y="-247.4" font-family="Helvetica,sans-Serif" font-size="14.00"
                  fill="#000000">class = C类
            </text>
        </g>
        <!-- 3&#45;&gt;7 -->
        <g id="edge7" class="edge">
            <title>3&#45;&gt;7</title>
            <path fill="none" stroke="#000000"
                  d="M387.9421,-366.9891C387.9421,-358.7417 387.9421,-350.0661 387.9421,-341.5724"/>
            <polygon fill="#000000" stroke="#000000"
                     points="391.4422,-341.3431 387.9421,-331.3431 384.4422,-341.3431 391.4422,-341.3431"/>
        </g>
        <!-- 5 -->
        <g id="node6" class="node">
            <title>5</title>
            <path fill="#39e581" stroke="#000000"
                  d="M107.8264,-194.9003C107.8264,-194.9003 12.0578,-194.9003 12.0578,-194.9003 6.0578,-194.9003 .0578,-188.9003 .0578,-182.9003 .0578,-182.9003 .0578,-131.4997 .0578,-131.4997 .0578,-125.4997 6.0578,-119.4997 12.0578,-119.4997 12.0578,-119.4997 107.8264,-119.4997 107.8264,-119.4997 113.8264,-119.4997 119.8264,-125.4997 119.8264,-131.4997 119.8264,-131.4997 119.8264,-182.9003 119.8264,-182.9003 119.8264,-188.9003 113.8264,-194.9003 107.8264,-194.9003"/>
            <text text-anchor="middle" x="59.9421" y="-178.2" font-family="Helvetica,sans-Serif" font-size="14.00"
                  fill="#000000">entropy = 0.0
            </text>
            <text text-anchor="middle" x="59.9421" y="-161.4" font-family="Helvetica,sans-Serif" font-size="14.00"
                  fill="#000000">samples = 47
            </text>
            <text text-anchor="middle" x="59.9421" y="-144.6" font-family="Helvetica,sans-Serif" font-size="14.00"
                  fill="#000000">value = [0, 47, 0]
            </text>
            <text text-anchor="middle" x="59.9421" y="-127.8" font-family="Helvetica,sans-Serif" font-size="14.00"
                  fill="#000000">class = B类
            </text>
        </g>
        <!-- 4&#45;&gt;5 -->
        <g id="edge5" class="edge">
            <title>4&#45;&gt;5</title>
            <path fill="none" stroke="#000000"
                  d="M145.565,-238.9891C132.9063,-226.8971 119.2841,-213.8849 106.7109,-201.8746"/>
            <polygon fill="#000000" stroke="#000000"
                     points="109.0931,-199.31 99.4444,-194.9335 104.2579,-204.3718 109.0931,-199.31"/>
        </g>
        <!-- 6 -->
        <g id="node7" class="node">
            <title>6</title>
            <path fill="#8139e5" stroke="#000000"
                  d="M238.0437,-194.9003C238.0437,-194.9003 149.8405,-194.9003 149.8405,-194.9003 143.8405,-194.9003 137.8405,-188.9003 137.8405,-182.9003 137.8405,-182.9003 137.8405,-131.4997 137.8405,-131.4997 137.8405,-125.4997 143.8405,-119.4997 149.8405,-119.4997 149.8405,-119.4997 238.0437,-119.4997 238.0437,-119.4997 244.0437,-119.4997 250.0437,-125.4997 250.0437,-131.4997 250.0437,-131.4997 250.0437,-182.9003 250.0437,-182.9003 250.0437,-188.9003 244.0437,-194.9003 238.0437,-194.9003"/>
            <text text-anchor="middle" x="193.9421" y="-178.2" font-family="Helvetica,sans-Serif" font-size="14.00"
                  fill="#000000">entropy = 0.0
            </text>
            <text text-anchor="middle" x="193.9421" y="-161.4" font-family="Helvetica,sans-Serif" font-size="14.00"
                  fill="#000000">samples = 1
            </text>
            <text text-anchor="middle" x="193.9421" y="-144.6" font-family="Helvetica,sans-Serif" font-size="14.00"
                  fill="#000000">value = [0, 0, 1]
            </text>
            <text text-anchor="middle" x="193.9421" y="-127.8" font-family="Helvetica,sans-Serif" font-size="14.00"
                  fill="#000000">class = C类
            </text>
        </g>
        <!-- 4&#45;&gt;6 -->
        <g id="edge6" class="edge">
            <title>4&#45;&gt;6</title>
            <path fill="none" stroke="#000000"
                  d="M193.9421,-238.9891C193.9421,-228.0272 193.9421,-216.309 193.9421,-205.2667"/>
            <polygon fill="#000000" stroke="#000000"
                     points="197.4422,-204.9335 193.9421,-194.9335 190.4422,-204.9335 197.4422,-204.9335"/>
        </g>
        <!-- 8 -->
        <g id="node9" class="node">
            <title>8</title>
            <path fill="#8139e5" stroke="#000000"
                  d="M368.0437,-194.9003C368.0437,-194.9003 279.8405,-194.9003 279.8405,-194.9003 273.8405,-194.9003 267.8405,-188.9003 267.8405,-182.9003 267.8405,-182.9003 267.8405,-131.4997 267.8405,-131.4997 267.8405,-125.4997 273.8405,-119.4997 279.8405,-119.4997 279.8405,-119.4997 368.0437,-119.4997 368.0437,-119.4997 374.0437,-119.4997 380.0437,-125.4997 380.0437,-131.4997 380.0437,-131.4997 380.0437,-182.9003 380.0437,-182.9003 380.0437,-188.9003 374.0437,-194.9003 368.0437,-194.9003"/>
            <text text-anchor="middle" x="323.9421" y="-178.2" font-family="Helvetica,sans-Serif" font-size="14.00"
                  fill="#000000">entropy = 0.0
            </text>
            <text text-anchor="middle" x="323.9421" y="-161.4" font-family="Helvetica,sans-Serif" font-size="14.00"
                  fill="#000000">samples = 3
            </text>
            <text text-anchor="middle" x="323.9421" y="-144.6" font-family="Helvetica,sans-Serif" font-size="14.00"
                  fill="#000000">value = [0, 0, 3]
            </text>
            <text text-anchor="middle" x="323.9421" y="-127.8" font-family="Helvetica,sans-Serif" font-size="14.00"
                  fill="#000000">class = C类
            </text>
        </g>
        <!-- 7&#45;&gt;8 -->
        <g id="edge8" class="edge">
            <title>7&#45;&gt;8</title>
            <path fill="none" stroke="#000000"
                  d="M364.8366,-238.9891C359.1297,-227.5752 353.0128,-215.3413 347.2942,-203.9042"/>
            <polygon fill="#000000" stroke="#000000"
                     points="350.4115,-202.3125 342.8088,-194.9335 344.1505,-205.443 350.4115,-202.3125"/>
        </g>
        <!-- 9 -->
        <g id="node10" class="node">
            <title>9</title>
            <path fill="#39e581" fill-opacity="0.498039" stroke="#000000"
                  d="M499.601,-203.2C499.601,-203.2 410.2832,-203.2 410.2832,-203.2 404.2832,-203.2 398.2832,-197.2 398.2832,-191.2 398.2832,-191.2 398.2832,-123.2 398.2832,-123.2 398.2832,-117.2 404.2832,-111.2 410.2832,-111.2 410.2832,-111.2 499.601,-111.2 499.601,-111.2 505.601,-111.2 511.601,-117.2 511.601,-123.2 511.601,-123.2 511.601,-191.2 511.601,-191.2 511.601,-197.2 505.601,-203.2 499.601,-203.2"/>
            <text text-anchor="middle" x="454.9421" y="-186.6" font-family="Helvetica,sans-Serif" font-size="14.00"
                  fill="#000000">特征1 &lt;= 6.95
            </text>
            <text text-anchor="middle" x="454.9421" y="-169.8" font-family="Helvetica,sans-Serif" font-size="14.00"
                  fill="#000000">entropy = 0.918
            </text>
            <text text-anchor="middle" x="454.9421" y="-153" font-family="Helvetica,sans-Serif" font-size="14.00"
                  fill="#000000">samples = 3
            </text>
            <text text-anchor="middle" x="454.9421" y="-136.2" font-family="Helvetica,sans-Serif" font-size="14.00"
                  fill="#000000">value = [0, 2, 1]
            </text>
            <text text-anchor="middle" x="454.9421" y="-119.4" font-family="Helvetica,sans-Serif" font-size="14.00"
                  fill="#000000">class = B类
            </text>
        </g>
        <!-- 7&#45;&gt;9 -->
        <g id="edge9" class="edge">
            <title>7&#45;&gt;9</title>
            <path fill="none" stroke="#000000"
                  d="M412.1306,-238.9891C416.6374,-230.3791 421.3884,-221.3026 426.0204,-212.4535"/>
            <polygon fill="#000000" stroke="#000000"
                     points="429.2524,-213.8259 430.7891,-203.3431 423.0506,-210.5796 429.2524,-213.8259"/>
        </g>
        <!-- 10 -->
        <g id="node11" class="node">
            <title>10</title>
            <path fill="#39e581" stroke="#000000"
                  d="M434.0437,-75.3003C434.0437,-75.3003 345.8405,-75.3003 345.8405,-75.3003 339.8405,-75.3003 333.8405,-69.3003 333.8405,-63.3003 333.8405,-63.3003 333.8405,-11.8997 333.8405,-11.8997 333.8405,-5.8997 339.8405,.1003 345.8405,.1003 345.8405,.1003 434.0437,.1003 434.0437,.1003 440.0437,.1003 446.0437,-5.8997 446.0437,-11.8997 446.0437,-11.8997 446.0437,-63.3003 446.0437,-63.3003 446.0437,-69.3003 440.0437,-75.3003 434.0437,-75.3003"/>
            <text text-anchor="middle" x="389.9421" y="-58.6" font-family="Helvetica,sans-Serif" font-size="14.00"
                  fill="#000000">entropy = 0.0
            </text>
            <text text-anchor="middle" x="389.9421" y="-41.8" font-family="Helvetica,sans-Serif" font-size="14.00"
                  fill="#000000">samples = 2
            </text>
            <text text-anchor="middle" x="389.9421" y="-25" font-family="Helvetica,sans-Serif" font-size="14.00"
                  fill="#000000">value = [0, 2, 0]
            </text>
            <text text-anchor="middle" x="389.9421" y="-8.2" font-family="Helvetica,sans-Serif" font-size="14.00"
                  fill="#000000">class = B类
            </text>
        </g>
        <!-- 9&#45;&gt;10 -->
        <g id="edge10" class="edge">
            <title>9&#45;&gt;10</title>
            <path fill="none" stroke="#000000"
                  d="M429.8114,-110.9595C425.0388,-102.178 420.0424,-92.9846 415.264,-84.1922"/>
            <polygon fill="#000000" stroke="#000000"
                     points="418.2321,-82.3238 410.3817,-75.2088 412.0817,-85.6664 418.2321,-82.3238"/>
        </g>
        <!-- 11 -->
        <g id="node12" class="node">
            <title>11</title>
            <path fill="#8139e5" stroke="#000000"
                  d="M564.0437,-75.3003C564.0437,-75.3003 475.8405,-75.3003 475.8405,-75.3003 469.8405,-75.3003 463.8405,-69.3003 463.8405,-63.3003 463.8405,-63.3003 463.8405,-11.8997 463.8405,-11.8997 463.8405,-5.8997 469.8405,.1003 475.8405,.1003 475.8405,.1003 564.0437,.1003 564.0437,.1003 570.0437,.1003 576.0437,-5.8997 576.0437,-11.8997 576.0437,-11.8997 576.0437,-63.3003 576.0437,-63.3003 576.0437,-69.3003 570.0437,-75.3003 564.0437,-75.3003"/>
            <text text-anchor="middle" x="519.9421" y="-58.6" font-family="Helvetica,sans-Serif" font-size="14.00"
                  fill="#000000">entropy = 0.0
            </text>
            <text text-anchor="middle" x="519.9421" y="-41.8" font-family="Helvetica,sans-Serif" font-size="14.00"
                  fill="#000000">samples = 1
            </text>
            <text text-anchor="middle" x="519.9421" y="-25" font-family="Helvetica,sans-Serif" font-size="14.00"
                  fill="#000000">value = [0, 0, 1]
            </text>
            <text text-anchor="middle" x="519.9421" y="-8.2" font-family="Helvetica,sans-Serif" font-size="14.00"
                  fill="#000000">class = C类
            </text>
        </g>
        <!-- 9&#45;&gt;11 -->
        <g id="edge11" class="edge">
            <title>9&#45;&gt;11</title>
            <path fill="none" stroke="#000000"
                  d="M480.0728,-110.9595C484.8454,-102.178 489.8418,-92.9846 494.6202,-84.1922"/>
            <polygon fill="#000000" stroke="#000000"
                     points="497.8025,-85.6664 499.5025,-75.2088 491.6521,-82.3238 497.8025,-85.6664"/>
        </g>
        <!-- 13 -->
        <g id="node14" class="node">
            <title>13</title>
            <path fill="#8139e5" fill-opacity="0.498039" stroke="#000000"
                  d="M630.601,-331.2C630.601,-331.2 541.2832,-331.2 541.2832,-331.2 535.2832,-331.2 529.2832,-325.2 529.2832,-319.2 529.2832,-319.2 529.2832,-251.2 529.2832,-251.2 529.2832,-245.2 535.2832,-239.2 541.2832,-239.2 541.2832,-239.2 630.601,-239.2 630.601,-239.2 636.601,-239.2 642.601,-245.2 642.601,-251.2 642.601,-251.2 642.601,-319.2 642.601,-319.2 642.601,-325.2 636.601,-331.2 630.601,-331.2"/>
            <text text-anchor="middle" x="585.9421" y="-314.6" font-family="Helvetica,sans-Serif" font-size="14.00"
                  fill="#000000">特征1 &lt;= 5.95
            </text>
            <text text-anchor="middle" x="585.9421" y="-297.8" font-family="Helvetica,sans-Serif" font-size="14.00"
                  fill="#000000">entropy = 0.918
            </text>
            <text text-anchor="middle" x="585.9421" y="-281" font-family="Helvetica,sans-Serif" font-size="14.00"
                  fill="#000000">samples = 3
            </text>
            <text text-anchor="middle" x="585.9421" y="-264.2" font-family="Helvetica,sans-Serif" font-size="14.00"
                  fill="#000000">value = [0, 1, 2]
            </text>
            <text text-anchor="middle" x="585.9421" y="-247.4" font-family="Helvetica,sans-Serif" font-size="14.00"
                  fill="#000000">class = C类
            </text>
        </g>
        <!-- 12&#45;&gt;13 -->
        <g id="edge13" class="edge">
            <title>12&#45;&gt;13</title>
            <path fill="none" stroke="#000000"
                  d="M585.9421,-366.9891C585.9421,-358.7417 585.9421,-350.0661 585.9421,-341.5724"/>
            <polygon fill="#000000" stroke="#000000"
                     points="589.4422,-341.3431 585.9421,-331.3431 582.4422,-341.3431 589.4422,-341.3431"/>
        </g>
        <!-- 16 -->
        <g id="node17" class="node">
            <title>16</title>
            <path fill="#8139e5" stroke="#000000"
                  d="M768.8264,-322.9003C768.8264,-322.9003 673.0578,-322.9003 673.0578,-322.9003 667.0578,-322.9003 661.0578,-316.9003 661.0578,-310.9003 661.0578,-310.9003 661.0578,-259.4997 661.0578,-259.4997 661.0578,-253.4997 667.0578,-247.4997 673.0578,-247.4997 673.0578,-247.4997 768.8264,-247.4997 768.8264,-247.4997 774.8264,-247.4997 780.8264,-253.4997 780.8264,-259.4997 780.8264,-259.4997 780.8264,-310.9003 780.8264,-310.9003 780.8264,-316.9003 774.8264,-322.9003 768.8264,-322.9003"/>
            <text text-anchor="middle" x="720.9421" y="-306.2" font-family="Helvetica,sans-Serif" font-size="14.00"
                  fill="#000000">entropy = 0.0
            </text>
            <text text-anchor="middle" x="720.9421" y="-289.4" font-family="Helvetica,sans-Serif" font-size="14.00"
                  fill="#000000">samples = 43
            </text>
            <text text-anchor="middle" x="720.9421" y="-272.6" font-family="Helvetica,sans-Serif" font-size="14.00"
                  fill="#000000">value = [0, 0, 43]
            </text>
            <text text-anchor="middle" x="720.9421" y="-255.8" font-family="Helvetica,sans-Serif" font-size="14.00"
                  fill="#000000">class = C类
            </text>
        </g>
        <!-- 12&#45;&gt;16 -->
        <g id="edge16" class="edge">
            <title>12&#45;&gt;16</title>
            <path fill="none" stroke="#000000"
                  d="M634.6802,-366.9891C647.4334,-354.8971 661.1573,-341.8849 673.8243,-329.8746"/>
            <polygon fill="#000000" stroke="#000000"
                     points="676.2965,-332.3538 681.1451,-322.9335 671.4802,-327.2741 676.2965,-332.3538"/>
        </g>
        <!-- 14 -->
        <g id="node15" class="node">
            <title>14</title>
            <path fill="#39e581" stroke="#000000"
                  d="M630.0437,-194.9003C630.0437,-194.9003 541.8405,-194.9003 541.8405,-194.9003 535.8405,-194.9003 529.8405,-188.9003 529.8405,-182.9003 529.8405,-182.9003 529.8405,-131.4997 529.8405,-131.4997 529.8405,-125.4997 535.8405,-119.4997 541.8405,-119.4997 541.8405,-119.4997 630.0437,-119.4997 630.0437,-119.4997 636.0437,-119.4997 642.0437,-125.4997 642.0437,-131.4997 642.0437,-131.4997 642.0437,-182.9003 642.0437,-182.9003 642.0437,-188.9003 636.0437,-194.9003 630.0437,-194.9003"/>
            <text text-anchor="middle" x="585.9421" y="-178.2" font-family="Helvetica,sans-Serif" font-size="14.00"
                  fill="#000000">entropy = 0.0
            </text>
            <text text-anchor="middle" x="585.9421" y="-161.4" font-family="Helvetica,sans-Serif" font-size="14.00"
                  fill="#000000">samples = 1
            </text>
            <text text-anchor="middle" x="585.9421" y="-144.6" font-family="Helvetica,sans-Serif" font-size="14.00"
                  fill="#000000">value = [0, 1, 0]
            </text>
            <text text-anchor="middle" x="585.9421" y="-127.8" font-family="Helvetica,sans-Serif" font-size="14.00"
                  fill="#000000">class = B类
            </text>
        </g>
        <!-- 13&#45;&gt;14 -->
        <g id="edge14" class="edge">
            <title>13&#45;&gt;14</title>
            <path fill="none" stroke="#000000"
                  d="M585.9421,-238.9891C585.9421,-228.0272 585.9421,-216.309 585.9421,-205.2667"/>
            <polygon fill="#000000" stroke="#000000"
                     points="589.4422,-204.9335 585.9421,-194.9335 582.4422,-204.9335 589.4422,-204.9335"/>
        </g>
        <!-- 15 -->
        <g id="node16" class="node">
            <title>15</title>
            <path fill="#8139e5" stroke="#000000"
                  d="M760.0437,-194.9003C760.0437,-194.9003 671.8405,-194.9003 671.8405,-194.9003 665.8405,-194.9003 659.8405,-188.9003 659.8405,-182.9003 659.8405,-182.9003 659.8405,-131.4997 659.8405,-131.4997 659.8405,-125.4997 665.8405,-119.4997 671.8405,-119.4997 671.8405,-119.4997 760.0437,-119.4997 760.0437,-119.4997 766.0437,-119.4997 772.0437,-125.4997 772.0437,-131.4997 772.0437,-131.4997 772.0437,-182.9003 772.0437,-182.9003 772.0437,-188.9003 766.0437,-194.9003 760.0437,-194.9003"/>
            <text text-anchor="middle" x="715.9421" y="-178.2" font-family="Helvetica,sans-Serif" font-size="14.00"
                  fill="#000000">entropy = 0.0
            </text>
            <text text-anchor="middle" x="715.9421" y="-161.4" font-family="Helvetica,sans-Serif" font-size="14.00"
                  fill="#000000">samples = 2
            </text>
            <text text-anchor="middle" x="715.9421" y="-144.6" font-family="Helvetica,sans-Serif" font-size="14.00"
                  fill="#000000">value = [0, 0, 2]
            </text>
            <text text-anchor="middle" x="715.9421" y="-127.8" font-family="Helvetica,sans-Serif" font-size="14.00"
                  fill="#000000">class = C类
            </text>
        </g>
        <!-- 13&#45;&gt;15 -->
        <g id="edge15" class="edge">
            <title>13&#45;&gt;15</title>
            <path fill="none" stroke="#000000"
                  d="M632.8751,-238.9891C645.0412,-227.0101 658.1246,-214.128 670.2272,-202.2116"/>
            <polygon fill="#000000" stroke="#000000"
                     points="672.9489,-204.4436 677.619,-194.9335 668.0377,-199.4556 672.9489,-204.4436"/>
        </g>
    </g>
</svg>
